<svg width="117" height="118" viewBox="0 0 117 118" fill="none" xmlns="http://www.w3.org/2000/svg">
<path d="M27.9666 115.443L28.7143 115.873L29.462 115.443L55.1763 100.657L55.9286 100.225V99.3571V69.7848V68.917L55.1762 68.4845L29.462 53.6996L28.7143 53.2697L27.9666 53.6996L2.25233 68.4845L1.5 68.917V69.7848L1.5 99.3571V100.225L2.25229 100.657L27.9666 115.443Z" stroke="#EFEFEF" stroke-width="3"/>
<path d="M27.339 86.6284C27.1481 86.8193 27.0181 87.0625 26.9654 87.3273C26.9127 87.5921 26.9398 87.8665 27.0431 88.116C27.1464 88.3654 27.3213 88.5786 27.5458 88.7286C27.7703 88.8785 28.0342 88.9586 28.3042 88.9586C28.5742 88.9586 28.8381 88.8785 29.0625 88.7286C29.287 88.5786 29.462 88.3654 29.5653 88.116C29.6686 87.8665 29.6956 87.5921 29.643 87.3273C29.5903 87.0625 29.4603 86.8193 29.2694 86.6284C29.0134 86.3724 28.6662 86.2286 28.3042 86.2286C27.9422 86.2286 27.595 86.3724 27.339 86.6284ZM23.4781 82.7675C23.2872 82.9584 23.1572 83.2017 23.1046 83.4665C23.0519 83.7312 23.0789 84.0057 23.1822 84.2551C23.2856 84.5045 23.4605 84.7177 23.685 84.8677C23.9095 85.0177 24.1734 85.0978 24.4433 85.0978C24.7133 85.0978 24.9772 85.0177 25.2017 84.8677C25.4262 84.7177 25.6011 84.5045 25.7045 84.2551C25.8078 84.0057 25.8348 83.7312 25.7821 83.4665C25.7295 83.2017 25.5995 82.9584 25.4086 82.7675C25.1526 82.5116 24.8054 82.3677 24.4433 82.3677C24.0813 82.3677 23.7341 82.5116 23.4781 82.7675ZM27.339 78.9067C27.1481 79.0976 27.0181 79.3408 26.9654 79.6056C26.9127 79.8704 26.9398 80.1449 27.0431 80.3943C27.1464 80.6437 27.3213 80.8569 27.5458 81.0069C27.7703 81.1569 28.0342 81.2369 28.3042 81.2369C28.5742 81.2369 28.8381 81.1569 29.0625 81.0069C29.287 80.8569 29.462 80.6437 29.5653 80.3943C29.6686 80.1449 29.6956 79.8704 29.643 79.6056C29.5903 79.3408 29.4603 79.0976 29.2694 78.9067C29.0134 78.6507 28.6662 78.5069 28.3042 78.5069C27.9422 78.5069 27.595 78.6507 27.339 78.9067ZM37.9563 76.0111C38.2123 75.7551 38.3561 75.4079 38.3561 75.0459C38.3561 74.6839 38.2123 74.3367 37.9563 74.0807C37.7003 73.8247 37.3531 73.6809 36.9911 73.6809C36.629 73.6809 36.2818 73.8247 36.0259 74.0807L34.0954 76.0111L32.165 74.0807L34.0954 72.1502C34.3514 71.8943 34.4952 71.5471 34.4952 71.185C34.4952 70.823 34.3514 70.4758 34.0954 70.2198C33.8394 69.9638 33.4923 69.82 33.1302 69.82C32.7682 69.82 32.421 69.9638 32.165 70.2198L30.0609 72.324C29.5119 72.0633 28.9119 71.9281 28.3042 71.9281C27.6965 71.9281 27.0964 72.0633 26.5475 72.324L24.4433 70.2198C24.1874 69.9638 23.8402 69.82 23.4781 69.82C23.1161 69.82 22.7689 69.9638 22.5129 70.2198C22.2569 70.4758 22.1131 70.823 22.1131 71.185C22.1131 71.5471 22.2569 71.8943 22.5129 72.1502L24.4433 74.0807L22.5129 76.0111L20.5825 74.0807C20.3265 73.8247 19.9793 73.6809 19.6173 73.6809C19.2553 73.6809 18.9081 73.8247 18.6521 74.0807C18.3961 74.3367 18.2523 74.6839 18.2523 75.0459C18.2523 75.4079 18.3961 75.7551 18.6521 76.0111L20.5825 77.9415L18.6521 79.8719L16.7217 77.9415C16.4657 77.6855 16.1185 77.5417 15.7565 77.5417C15.3944 77.5417 15.0472 77.6855 14.7913 77.9415C14.5353 78.1975 14.3915 78.5447 14.3915 78.9067C14.3915 79.2687 14.5353 79.6159 14.7913 79.8719L16.8954 81.9761C16.6347 82.525 16.4995 83.1251 16.4995 83.7328C16.4995 84.3404 16.6347 84.9405 16.8954 85.4894L14.7913 87.5936C14.5353 87.8496 14.3915 88.1968 14.3915 88.5588C14.3915 88.9208 14.5353 89.268 14.7913 89.524C15.0472 89.78 15.3944 89.9238 15.7565 89.9238C16.1185 89.9238 16.4657 89.78 16.7217 89.524L18.6521 87.5936L20.5825 89.524L18.6521 91.4544C18.3961 91.7104 18.2523 92.0576 18.2523 92.4196C18.2523 92.7817 18.3961 93.1289 18.6521 93.3848C18.9081 93.6408 19.2553 93.7847 19.6173 93.7847C19.9793 93.7847 20.3265 93.6408 20.5825 93.3848L22.5129 91.4544L24.4433 93.3848L22.5129 95.3153C22.2569 95.5713 22.1131 95.9185 22.1131 96.2805C22.1131 96.6425 22.2569 96.9897 22.5129 97.2457C22.7689 97.5017 23.1161 97.6455 23.4781 97.6455C23.8402 97.6455 24.1874 97.5017 24.4433 97.2457L26.5475 95.1415C27.0964 95.4022 27.6965 95.5375 28.3042 95.5375C28.9119 95.5375 29.5119 95.4022 30.0609 95.1415L32.165 97.2457C32.421 97.5017 32.7682 97.6455 33.1302 97.6455C33.4923 97.6455 33.8394 97.5017 34.0954 97.2457C34.3514 96.9897 34.4952 96.6425 34.4952 96.2805C34.4952 95.9185 34.3514 95.5713 34.0954 95.3153L32.165 93.3848L34.0954 91.4544L36.0259 93.3848C36.2818 93.6408 36.629 93.7847 36.9911 93.7847C37.3531 93.7847 37.7003 93.6408 37.9563 93.3848C38.2123 93.1289 38.3561 92.7817 38.3561 92.4196C38.3561 92.0576 38.2123 91.7104 37.9563 91.4544L36.0259 89.524L37.9563 87.5936L39.8867 89.524C40.1427 89.78 40.4899 89.9238 40.8519 89.9238C41.2139 89.9238 41.5611 89.78 41.8171 89.524C42.0731 89.268 42.2169 88.9208 42.2169 88.5588C42.2169 88.1968 42.0731 87.8496 41.8171 87.5936L39.713 85.4894C39.9736 84.9405 40.1089 84.3404 40.1089 83.7328C40.1089 83.1251 39.9736 82.525 39.713 81.9761L41.8171 79.8719C42.0731 79.6159 42.2169 79.2687 42.2169 78.9067C42.2169 78.5447 42.0731 78.1975 41.8171 77.9415C41.5611 77.6855 41.2139 77.5417 40.8519 77.5417C40.4899 77.5417 40.1427 77.6855 39.8867 77.9415L37.9563 79.8719L36.0259 77.9415L37.9563 76.0111ZM36.9911 82.7675C37.2471 83.0235 37.3909 83.3707 37.3909 83.7328C37.3909 84.0948 37.2471 84.442 36.9911 84.698L29.2694 92.4196C29.0134 92.6756 28.6662 92.8194 28.3042 92.8194C27.9422 92.8194 27.595 92.6756 27.339 92.4196L19.6173 84.698C19.3613 84.442 19.2175 84.0948 19.2175 83.7328C19.2175 83.3707 19.3613 83.0235 19.6173 82.7675L27.339 75.0459C27.595 74.7899 27.9422 74.6461 28.3042 74.6461C28.6662 74.6461 29.0134 74.7899 29.2694 75.0459L36.9911 82.7675ZM31.1998 82.7675C31.0089 82.9584 30.8789 83.2017 30.8262 83.4665C30.7736 83.7312 30.8006 84.0057 30.9039 84.2551C31.0072 84.5045 31.1822 84.7177 31.4067 84.8677C31.6311 85.0177 31.895 85.0978 32.165 85.0978C32.435 85.0978 32.6989 85.0177 32.9234 84.8677C33.1479 84.7177 33.3228 84.5045 33.4261 84.2551C33.5294 84.0057 33.5565 83.7312 33.5038 83.4665C33.4511 83.2017 33.3211 82.9584 33.1302 82.7675C32.8742 82.5116 32.527 82.3677 32.165 82.3677C31.803 82.3677 31.4558 82.5116 31.1998 82.7675Z" fill="#EFEFEF"/>
<path d="M86.9666 115.443L87.7143 115.873L88.462 115.443L114.176 100.657L114.929 100.225V99.3571V69.7848V68.917L114.176 68.4845L88.462 53.6996L87.7143 53.2697L86.9666 53.6996L61.2523 68.4845L60.5 68.917V69.7848V99.3571V100.225L61.2523 100.657L86.9666 115.443Z" stroke="#EFEFEF" stroke-width="3"/>
<line x1="87.367" y1="58.4254" x2="110.51" y2="72.1397" stroke="white" stroke-width="2"/>
<line x1="88.0615" y1="110.711" x2="111.205" y2="96.9968" stroke="white" stroke-width="2"/>
<line x1="65.2856" y1="97.9537" x2="65.2856" y2="71.2857" stroke="white" stroke-width="2"/>
<path d="M57.6809 64.4432L58.4286 64.8731L59.1763 64.4432L84.8906 49.6574L85.6429 49.2248V48.3571V18.7848V17.917L84.8906 17.4845L59.1763 2.69962L58.4286 2.26973L57.681 2.69962L31.9667 17.4845L31.2144 17.917V18.7848L31.2144 48.3571V49.2248L31.9666 49.6574L57.6809 64.4432Z" stroke="#EFEFEF" stroke-width="3"/>
<path fill-rule="evenodd" clip-rule="evenodd" d="M49.2679 37.6616L51.1741 33.6757C51.3848 35.1029 51.7418 36.5049 52.2396 37.8597L49.2679 37.6616ZM47.3916 39.8793L53.2403 40.2692L53.8334 41.653C54.0176 42.0827 54.4401 42.3613 54.9077 42.3614L55.4261 42.3614C55.6057 45.3561 56.4882 47.7936 57.9947 50.8066C58.1927 51.2026 58.5975 51.4527 59.0401 51.4527C59.4828 51.4527 59.8876 51.2026 60.0856 50.8066C61.5921 47.7936 62.4746 45.3561 62.6542 42.3614L63.1726 42.3614C63.6402 42.3614 64.0627 42.0827 64.2469 41.653L64.8399 40.2692L70.6887 39.8793C71.0755 39.8535 71.4243 39.6377 71.6199 39.303C71.8157 38.9683 71.8327 38.5585 71.6654 38.2088L67.1408 28.7482C66.8426 25.196 65.3006 21.8319 62.7435 19.2748L59.8666 16.3979C59.4102 15.9415 58.6701 15.9415 58.2137 16.3979L55.3368 19.2748C52.7797 21.8319 51.2377 25.1959 50.9395 28.7482L46.4149 38.2088C46.2477 38.5585 46.2647 38.9684 46.4603 39.303C46.656 39.6377 47.0048 39.8535 47.3916 39.8793ZM59.0401 47.4982C58.3062 45.727 57.8913 44.148 57.7685 42.3614L60.3118 42.3613C60.1891 44.148 59.7741 45.727 59.0401 47.4982ZM62.4018 40.0237L61.5196 40.0237L56.5607 40.0237L55.6785 40.0237L54.7983 37.9702C53.9909 36.086 53.4986 34.0817 53.3414 32.0377L53.2619 31.0052C52.9741 27.2629 54.3358 23.5818 56.9898 20.9277L59.0402 18.8774L61.0905 20.9277C63.7445 23.5817 65.1062 27.2629 64.8184 31.0052L64.7389 32.0377C64.5817 34.0817 64.0894 36.0859 63.2819 37.9702L62.4018 40.0237ZM68.8125 37.6615L65.8407 37.8597C66.3386 36.505 66.6955 35.1029 66.9062 33.6756L68.8125 37.6615ZM58.2137 27.9688C57.7572 27.5123 57.7572 26.7722 58.2137 26.3158C58.6701 25.8593 59.4102 25.8593 59.8666 26.3158C60.3231 26.7722 60.3231 27.5123 59.8666 27.9688C59.4102 28.4252 58.6701 28.4252 58.2137 27.9688ZM56.5607 24.6628C55.1913 26.0322 55.1913 28.2524 56.5607 29.6217C57.9301 30.9911 60.1502 30.9911 61.5196 29.6217C62.889 28.2523 62.889 26.0322 61.5196 24.6628C60.1503 23.2934 57.9301 23.2934 56.5607 24.6628Z" fill="#EFEFEF"/>
</svg>
